<mxfile host="app.diagrams.net" modified="2023-04-12T16:52:44.672Z" agent="Mozilla/5.0 (Macintosh; Intel Mac OS X 10_15_7) AppleWebKit/537.36 (KHTML, like Gecko) Chrome/112.0.0.0 Safari/537.36" version="21.1.5" etag="XuN90tYNXsmZR3b4W6Un" type="github">
  <diagram name="Page-1" id="wwJbwEz_lyKTu6ZgYoSY">
    <mxGraphModel>
      <root>
        <mxCell id="0" />
        <mxCell id="1" parent="0" />
      </root>
    </mxGraphModel>
  </diagram>
</mxfile>
